<svg xmlns="http://www.w3.org/2000/svg" viewBox="0 0 512.001 512.001"><path d="M511.968 260.039c-2.23 141.366-118.639 254.159-260.004 251.93C110.596 509.738-2.197 393.332.032 251.966 2.263 110.596 118.671-2.197 260.038.033c141.367 2.231 254.16 118.64 251.93 260.006z" fill="#334d5c"/><path d="M193.569 204.001h-75.134v214h.851l-.005-.241c0 10.37 16.675 18.595 37.247 18.595 20.573 0 37.248-8.853 37.248-19.222l-.207-213.132z" fill="#efc84a"/><path d="M193.569 204.001h-75.134v214h.851l-.005-.241c0 10.37 16.675 18.595 37.247 18.595 20.573 0 37.248-8.853 37.248-19.222l-.207-213.132z" fill="#efc84a"/><ellipse cx="156.528" cy="204.832" rx="37.248" ry="18.779" fill="#efd47c"/><path d="M292.897 95.001h-73.462v323h-.821s-.007-.281-.007-.241c0 10.37 16.677 18.595 37.249 18.595 20.571 0 37.248-8.226 37.248-18.596l-.207-322.758z" fill="#e05b49"/><ellipse cx="255.855" cy="94.578" rx="37.249" ry="18.778" fill="#ff6853"/><path d="M392.223 285.001h-73.788v133h-.493s-.007-.281-.007-.241c0 10.37 16.677 18.595 37.248 18.595 20.572 0 37.249-8.082 37.249-18.452 0-.671-.209-132.902-.209-132.902z" fill="#45b39c"/><ellipse cx="355.184" cy="284.294" rx="37.249" ry="18.778" fill="#51d1b6"/><path d="M119.281 204.001h-.846v214h1v-.459c0 10.353 16 18.632 37 18.659V223.609c-21-.028-37.154-7.608-37.154-19.608z" opacity=".2" fill="#5d5d5d"/><path d="M119.382 206.158c.028.195.051.396.09.593.029.144.074.285.108.429.042.17.077.342.129.51.045.148.104.295.156.441.056.162.105.323.17.482.062.152.139.303.209.454.068.151.13.304.206.452.084.164.182.324.273.484.077.135.146.271.229.406.105.172.227.342.342.512.082.121.156.24.241.359.132.184.278.361.422.539.082.105.158.211.243.312.155.185.323.365.488.547.087.095.167.191.257.285.182.189.377.376.57.562.085.082.163.165.25.245.205.19.423.377.642.563.087.073.165.15.253.222.238.2.492.394.745.587.075.058.144.116.221.173.268.202.55.398.833.593.068.047.133.098.201.145.311.208.632.411.957.615.05.029.095.061.145.091.339.208.688.41 1.046.61.041.024.079.049.121.071a34.46 34.46 0 0 0 1.228.649c.417.211.842.416 1.276.615.004.002.009.352.012.355.441.202.889.939 1.347.939h.002c6.418 2 14.651 3.943 23.63 3.956l-6.925-37.391c-17.21 1.657-30.219 9.193-30.219 18.353 0 .325.017.602.049.921.012.125.037.199.053.321zm198.56 211.843h.183c-.002-.081-.013-.16-.013-.241 0-.04-.17.241-.17.241zm.473-133.405l.02 133.404h-.31c.267 10.236 17.467 18.173 37.31 18.2V303.07c-20-.027-37.02-8.12-37.02-18.474z" opacity=".2" fill="#5d5d5d"/><path d="M318.038 285.281c.026.197.05.397.09.593.028.144.072.286.107.431.043.17.078.34.128.508.045.148.104.295.156.441.057.162.106.323.172.483.062.153.139.304.207.455.069.149.132.302.208.452.083.162.18.322.271.484.077.135.146.272.229.405.106.171.228.341.344.511.081.121.154.242.241.361.132.182.278.359.422.539.081.104.156.209.243.312.155.183.323.364.488.545.087.095.167.191.255.285.182.189.377.376.572.562.085.082.161.165.248.245.206.192.425.378.643.566.085.073.165.148.251.221.24.199.492.393.745.588.075.057.146.116.221.173.27.2.551.397.835.592.067.048.131.097.201.144.309.208.63.413.957.615.048.029.095.06.145.093.339.206.689.409 1.044.608.041.023.081.049.123.071.373.208.758.41 1.148.608.028.016.053.028.08.042a30.64 30.64 0 0 0 1.288.622c.439.201.889.398 1.347.59 6.42 2.678 14.651 4.293 23.632 4.305l-6.925-37.217c-17.211 1.658-30.221 9.281-30.221 18.439 0 .324.017.646.049.965.015.125.04.242.056.363zm-99.431-190.28h-.018l.846 109.831v213.169h-.821s-.007-.281-.007-.241c0 3.24 1.631 6.136 4.495 8.79.009.008.019-.06.025-.055.28.26.569.477.873.727.007.008.017-.005.025.001.303.252.616.488.941.73.026.02.054.033.08.052.31.229.628.455.958.676l.119.073c.319.215.647.425.986.631.053.033.111.064.166.097.327.197.659.393 1.002.582.07.039.144.074.212.112.335.182.672.363 1.02.538l.269.129c.337.166.675.332 1.023.49.106.049.219.095.326.143.337.152.676.302 1.023.447.119.048.242.093.36.141.345.141.69.281 1.045.414.139.052.283.1.424.152.341.125.683.251 1.034.369.154.054.314.1.469.152.345.113.687.227 1.038.334.179.056.363.105.544.157.336.101.672.2 1.015.294.193.053.392.102.587.15.336.091.673.181 1.017.262.21.053.427.1.64.147.334.078.667.157 1.007.23.227.047.458.09.689.137.332.066.663.135 1 .199.238.043.483.081.725.123.334.059.665.118 1.004.17.248.039.501.073.751.107.337.051.672.101 1.014.146.26.035.525.061.788.092.337.04.67.083 1.01.118.27.028.546.051.818.075.337.03.674.064 1.014.09.278.022.561.036.84.056.34.021.679.048 1.021.064.285.016.577.023.863.033.342.016.682.03 1.025.04.292.009.428.009.721.012l.822.013V113.355c-21-.029-36.828-7.354-36.828-18.354z" opacity=".2" fill="#5d5d5d"/><path d="M218.71 95.564c.027.198.05.396.09.594.028.143.072.286.108.43.042.17.077.34.127.508.045.149.104.296.157.443.057.161.107.323.171.483.062.153.139.303.209.455.067.149.13.301.206.451.084.164.182.323.271.485.077.135.147.271.23.406.104.171.227.342.342.512.081.118.154.241.241.359.132.182.278.36.422.54.082.104.157.208.243.312.155.184.323.365.488.545.087.096.167.192.257.285.18.19.377.377.57.563.085.082.163.165.25.245.205.191.423.378.642.565.085.074.165.148.253.222.238.198.492.393.745.586.075.057.144.117.22.174.268.201.551.396.834.592.068.048.132.096.201.143.311.209.63.414.957.615l.145.094c.339.206.688.41 1.045.61l.122.07c.373.208.758.41 1.15.609l.078.042c.415.21.842.415 1.274.615l.014.005c.44.202.889.398 1.347.59 6.42 2.678 14.651 4.294 23.632 4.304L248.827 75.8c-17.21 1.658-30.221 9.281-30.221 18.44 0 .323.018.645.051.966.012.12.037.238.053.358z" opacity=".2" fill="#5d5d5d"/></svg>