<?xml version="1.0" encoding="utf-8"?><svg xmlns="http://www.w3.org/2000/svg" display="none"  xmlns:xlink="http://www.w3.org/1999/xlink"><symbol viewBox="0 0 21.825 21.825" id="arrow"><path d="M16.791 13.254a1.112 1.112 0 0 1 1.587 0 1.14 1.14 0 0 1 0 1.587l-6.65 6.651a1.14 1.14 0 0 1-.809.333c-.317 0-.603-.127-.81-.333l-6.65-6.651c-.444-.444-.444-1.143 0-1.587s1.143-.444 1.587 0l4.746 4.762V1.111A1.116 1.116 0 0 1 10.918 0c.619 0 1.111.492 1.111 1.111v16.904l4.762-4.761z"/></symbol><symbol viewBox="0 0 512.001 512.001" id="bar-chart"><path d="M511.968 260.039c-2.23 141.366-118.639 254.159-260.004 251.93C110.596 509.738-2.197 393.332.032 251.966 2.263 110.596 118.671-2.197 260.038.033c141.367 2.231 254.16 118.64 251.93 260.006z" fill="#334d5c"/><path d="M193.569 204.001h-75.134v214h.851l-.005-.241c0 10.37 16.675 18.595 37.247 18.595 20.573 0 37.248-8.853 37.248-19.222l-.207-213.132z" fill="#efc84a"/><path d="M193.569 204.001h-75.134v214h.851l-.005-.241c0 10.37 16.675 18.595 37.247 18.595 20.573 0 37.248-8.853 37.248-19.222l-.207-213.132z" fill="#efc84a"/><ellipse cx="156.528" cy="204.832" rx="37.248" ry="18.779" fill="#efd47c"/><path d="M292.897 95.001h-73.462v323h-.821s-.007-.281-.007-.241c0 10.37 16.677 18.595 37.249 18.595 20.571 0 37.248-8.226 37.248-18.596l-.207-322.758z" fill="#e05b49"/><ellipse cx="255.855" cy="94.578" rx="37.249" ry="18.778" fill="#ff6853"/><path d="M392.223 285.001h-73.788v133h-.493s-.007-.281-.007-.241c0 10.37 16.677 18.595 37.248 18.595 20.572 0 37.249-8.082 37.249-18.452 0-.671-.209-132.902-.209-132.902z" fill="#45b39c"/><ellipse cx="355.184" cy="284.294" rx="37.249" ry="18.778" fill="#51d1b6"/><path d="M119.281 204.001h-.846v214h1v-.459c0 10.353 16 18.632 37 18.659V223.609c-21-.028-37.154-7.608-37.154-19.608z" opacity=".2" fill="#5d5d5d"/><path d="M119.382 206.158c.028.195.051.396.09.593.029.144.074.285.108.429.042.17.077.342.129.51.045.148.104.295.156.441.056.162.105.323.17.482.062.152.139.303.209.454.068.151.13.304.206.452.084.164.182.324.273.484.077.135.146.271.229.406.105.172.227.342.342.512.082.121.156.24.241.359.132.184.278.361.422.539.082.105.158.211.243.312.155.185.323.365.488.547.087.095.167.191.257.285.182.189.377.376.57.562.085.082.163.165.25.245.205.19.423.377.642.563.087.073.165.15.253.222.238.2.492.394.745.587.075.058.144.116.221.173.268.202.55.398.833.593.068.047.133.098.201.145.311.208.632.411.957.615.05.029.095.061.145.091.339.208.688.41 1.046.61.041.024.079.049.121.071a34.46 34.46 0 0 0 1.228.649c.417.211.842.416 1.276.615.004.002.009.352.012.355.441.202.889.939 1.347.939h.002c6.418 2 14.651 3.943 23.63 3.956l-6.925-37.391c-17.21 1.657-30.219 9.193-30.219 18.353 0 .325.017.602.049.921.012.125.037.199.053.321zM317.942 418.001h.183c-.002-.081-.013-.16-.013-.241 0-.04-.17.241-.17.241zm.473-133.405l.02 133.404h-.31c.267 10.236 17.467 18.173 37.31 18.2V303.07c-20-.027-37.02-8.12-37.02-18.474z" opacity=".2" fill="#5d5d5d"/><path d="M318.038 285.281c.026.197.05.397.09.593.028.144.072.286.107.431.043.17.078.34.128.508.045.148.104.295.156.441.057.162.106.323.172.483.062.153.139.304.207.455.069.149.132.302.208.452.083.162.18.322.271.484.077.135.146.272.229.405.106.171.228.341.344.511.081.121.154.242.241.361.132.182.278.359.422.539.081.104.156.209.243.312.155.183.323.364.488.545.087.095.167.191.255.285.182.189.377.376.572.562.085.082.161.165.248.245.206.192.425.378.643.566.085.073.165.148.251.221.24.199.492.393.745.588.075.057.146.116.221.173.27.2.551.397.835.592.067.048.131.097.201.144.309.208.63.413.957.615.048.029.095.06.145.093.339.206.689.409 1.044.608.041.023.081.049.123.071.373.208.758.41 1.148.608.028.016.053.028.08.042a30.64 30.64 0 0 0 1.288.622c.439.201.889.398 1.347.59 6.42 2.678 14.651 4.293 23.632 4.305l-6.925-37.217c-17.211 1.658-30.221 9.281-30.221 18.439 0 .324.017.646.049.965.015.125.04.242.056.363zm-99.431-190.28h-.018l.846 109.831v213.169h-.821s-.007-.281-.007-.241c0 3.24 1.631 6.136 4.495 8.79.009.008.019-.06.025-.055.28.26.569.477.873.727.007.008.017-.005.025.001.303.252.616.488.941.73.026.02.054.033.08.052.31.229.628.455.958.676l.119.073c.319.215.647.425.986.631.053.033.111.064.166.097.327.197.659.393 1.002.582.07.039.144.074.212.112.335.182.672.363 1.02.538l.269.129c.337.166.675.332 1.023.49.106.049.219.095.326.143.337.152.676.302 1.023.447.119.048.242.093.36.141.345.141.69.281 1.045.414.139.052.283.1.424.152.341.125.683.251 1.034.369.154.054.314.1.469.152.345.113.687.227 1.038.334.179.056.363.105.544.157.336.101.672.2 1.015.294.193.053.392.102.587.15.336.091.673.181 1.017.262.21.053.427.1.64.147.334.078.667.157 1.007.23.227.047.458.09.689.137.332.066.663.135 1 .199.238.043.483.081.725.123.334.059.665.118 1.004.17.248.039.501.073.751.107.337.051.672.101 1.014.146.26.035.525.061.788.092.337.04.67.083 1.01.118.27.028.546.051.818.075.337.03.674.064 1.014.09.278.022.561.036.84.056.34.021.679.048 1.021.064.285.016.577.023.863.033.342.016.682.03 1.025.04.292.009.428.009.721.012l.822.013V113.355c-21-.029-36.828-7.354-36.828-18.354z" opacity=".2" fill="#5d5d5d"/><path d="M218.71 95.564c.027.198.05.396.09.594.028.143.072.286.108.43.042.17.077.34.127.508.045.149.104.296.157.443.057.161.107.323.171.483.062.153.139.303.209.455.067.149.13.301.206.451.084.164.182.323.271.485.077.135.147.271.23.406.104.171.227.342.342.512.081.118.154.241.241.359.132.182.278.36.422.54.082.104.157.208.243.312.155.184.323.365.488.545.087.096.167.192.257.285.18.19.377.377.57.563.085.082.163.165.25.245.205.191.423.378.642.565.085.074.165.148.253.222.238.198.492.393.745.586.075.057.144.117.22.174.268.201.551.396.834.592.068.048.132.096.201.143.311.209.63.414.957.615l.145.094c.339.206.688.41 1.045.61l.122.07c.373.208.758.41 1.15.609l.078.042c.415.21.842.415 1.274.615l.014.005c.44.202.889.398 1.347.59 6.42 2.678 14.651 4.294 23.632 4.304L248.827 75.8c-17.21 1.658-30.221 9.281-30.221 18.44 0 .323.018.645.051.966.012.12.037.238.053.358z" opacity=".2" fill="#5d5d5d"/></symbol><symbol viewBox="0 0 512 512" id="basketball"><path d="M255.999 0C397.385 0 512 114.615 512 255.999 512 397.385 397.385 512 255.999 512 114.615 512 0 397.385 0 255.999 0 114.615 114.615 0 255.999 0z" fill="#ffca4f"/><path d="M171.165 10.738c92.3 0 167.128 74.824 167.128 167.128s-74.826 167.128-167.128 167.128c-92.304 0-167.128-74.824-167.128-167.128S78.861 10.738 171.165 10.738z" fill="#ecf0f1"/><path d="M19.784 106.955c16.609-3.248 34.581-4.992 53.415-5.19 7.384-22.653 6.432-42.439-1.689-58.078-22.057 16.411-39.93 38.131-51.726 63.27v-.002zM297.126 68.02c25.64 29.373 41.171 67.795 41.171 109.846 0 8.356-.615 16.569-1.799 24.595-25.561-27.673-64.124-53.26-112.525-72.191a421.317 421.317 0 0 0-51.049-16.285c23.491-34.224 71.565-50.925 124.202-45.967v.002zm36.978 147.209c-23.455-30.061-63.222-58.34-114.893-78.55-16.594-6.489-33.534-11.781-50.485-15.91a84.25 84.25 0 0 0-3.475 6.978c-25.784 58.583 20.708 134.179 101.392 168.521a219.695 219.695 0 0 0 16.02 6.088c25.276-22.653 43.619-52.888 51.437-87.129l.004.002zM160.43 118.835a392.815 392.815 0 0 0-45.162-7.296 314.279 314.279 0 0 0-4.013 9.712c-30.517 77.54-28.39 161.827 1.091 213.097 18.296 6.881 38.118 10.647 58.823 10.647 39.76 0 76.272-13.893 104.964-37.079a231.124 231.124 0 0 1-12.46-4.89c-85.831-36.53-133.173-116.661-105.747-178.979a92.904 92.904 0 0 1 2.503-5.214v.002zm30.662-106.922c-27.803 19.619-53.554 51.417-72.496 92.218a411.878 411.878 0 0 1 45.788 7.81c23.14-36.552 71.124-55.388 125.017-52.202-25.833-25.855-60.094-43.286-98.309-47.826zm-19.923-1.18c1.429 0 2.853.015 4.273.053-25.737 21.764-49.14 53.322-66.571 92.372a373.081 373.081 0 0 0-27.02-1.385c7.481-24.474 6.273-46.245-2.591-63.509 26.368-17.398 57.952-27.532 91.907-27.532h.002zM98.824 328.567c-48.139-23.155-83.471-68.701-92.509-123.13 25.014-21.01 46.223-45.047 60.808-70.425 4.987-8.674 8.987-17.141 12.047-25.34a355.23 355.23 0 0 1 26.456 1.016 321.93 321.93 0 0 0-2.447 6.024c-29.982 76.177-29.614 157.395-4.355 211.855zM4.959 195.454c22.831-19.938 42.137-42.293 55.37-65.319 4.011-6.978 7.322-13.767 9.957-20.344-19.46.525-37.888 2.785-54.634 6.742-7.497 18.988-11.615 39.676-11.615 61.332 0 5.94.311 11.808.922 17.589z" fill="#ff5b61"/><path d="M297.124 68.02c25.64 29.373 41.171 67.795 41.171 109.846 0 8.356-.615 16.569-1.799 24.595-7.867-8.517-16.966-16.836-27.201-24.822a162.198 162.198 0 0 0 1.356-20.931c0-33.135-10.032-63.921-27.223-89.495 4.522.104 9.093.368 13.699.805l-.003.002zm36.977 147.209c-7.296-9.351-16.168-18.525-26.485-27.338-7.867 39.985-30.564 74.641-62.131 98.012a221.907 221.907 0 0 0 21.156 10.367 219.695 219.695 0 0 0 16.02 6.088c25.276-22.653 43.619-52.888 51.437-87.129h.003zm-95.333 75.384a230.562 230.562 0 0 0 24.902 12.416 231.78 231.78 0 0 0 12.46 4.89c-28.692 23.188-65.204 37.079-104.964 37.079-20.706 0-40.527-3.766-58.823-10.647-4.326-7.521-8.057-15.756-11.187-24.571 15.405 4.912 31.82 7.571 48.855 7.571 32.815 0 63.33-9.847 88.756-26.738h.001zm9.163-261.242a167.644 167.644 0 0 1 41.467 30.367 197.307 197.307 0 0 0-11.582-.342 161.562 161.562 0 0 0-29.885-30.025zM98.819 328.569c-32.674-15.718-59.441-41.751-76.101-73.871 17.387 22.553 40.633 40.36 67.462 51.133 2.446 7.99 5.325 15.597 8.639 22.738z" fill="#ec4b53"/><path d="M41.625 314.604h428.751c9.287 0 16.88 7.598 16.88 16.88v.002c0 9.287-7.596 16.88-16.88 16.88H41.625c-9.287 0-16.88-7.594-16.88-16.88v-.002c0-9.284 7.596-16.88 16.88-16.88z" fill="#20d0c2"/><path d="M54.621 333.762l23.27 49.212 11.333-19.081-18.807-31.668 4.05-2.394 17.493 29.455 17.493-29.455 4.055 2.394-18.81 31.668 25.563 43.039 25.563-43.039-18.81-31.668 4.055-2.394 17.493 29.455 17.493-29.455 4.05 2.394-18.807 31.668 25.563 43.041 25.563-43.041-18.81-31.668 4.055-2.394 17.493 29.455 17.493-29.455 4.05 2.394-18.805 31.668 25.563 43.041 25.563-43.041-18.81-31.668 4.055-2.394 17.493 29.455 17.493-29.455 4.05 2.394-18.807 31.668 25.563 43.041 25.563-43.041-18.81-31.668 4.053-2.394 17.496 29.455 17.493-29.455 4.05 2.394-18.81 31.668 25.565 43.041 25.561-43.041-18.807-31.668 4.05-2.394 17.496 29.455 17.493-29.455 4.05 2.394-18.81 31.668 25.563 43.039 25.563-43.039-18.807-31.668 4.05-2.394 17.493 29.455 17.493-29.455 4.055 2.394-18.81 31.668 9.333 15.712 21.678-45.843 4.255 2.009-23.896 50.542-21.72 58.587-1.96 5.977a255.928 255.928 0 0 1-6.787 5.594l4.271-13.026-16.212-27.294-25.563 43.039 9.794 16.488a262.225 262.225 0 0 1-4.05 2.394l-8.48-14.272-15.751 26.522a265.775 265.775 0 0 1-7.311 3.091l20.324-34.224-25.561-43.039-25.563 43.039 22.273 37.502a235.284 235.284 0 0 1-4.529 1.596l-20.48-34.487-25.563 43.039 1.38 2.324c-2.959.441-5.935.822-8.927 1.164l2.073-3.488L261.76 463.8l-25.563 43.039 2.719 4.582a255.566 255.566 0 0 1-10.389-.891l2.194-3.691-25.564-43.039-22.318 37.575a278.503 278.503 0 0 1-4.63-1.424l24.212-40.761-25.563-43.039-25.563 43.039 23.565 39.674a255.593 255.593 0 0 1-6.903-2.405l-19.398-32.66-11.306 19.034a279.55 279.55 0 0 1-4.156-2.22l12.724-21.425-25.563-43.039-18.525 31.19 5.607 17.094a266.967 266.967 0 0 1-6.544-4.846L95.977 444.9l-21.718-58.587-23.898-50.542 4.255-2.009h.005zm386.603 51l-9.659-16.261-25.563 43.039 15.575 26.22 19.647-52.998zm-361.133 3.722l19.647 53 17.784-29.946-25.562-43.039-11.871 19.983.002.002zm320.436 23.056l-25.561-43.039-25.565 43.039 25.563 43.041 25.563-43.041zm-56.601.002l-25.561-43.039-25.563 43.039 25.563 43.041 25.561-43.041zm-28.299 47.647l-25.563-43.039-25.563 43.039 25.563 43.041 25.563-43.041zm-28.302-47.649l-25.563-43.039-25.563 43.039 25.563 43.041 25.563-43.041zm-28.299 47.649l-25.563-43.039-25.563 43.039 25.563 43.041 25.563-43.041zm-28.301-47.649l-25.563-43.039-25.563 43.039 25.563 43.041 25.563-43.041zm-56.601.002l-25.563-43.039-25.563 43.039 25.563 43.041 25.563-43.041z" fill="#fff"/><path d="M487.257 331.484c0 9.287-7.594 16.88-16.88 16.88H41.625c-9.287 0-16.88-7.594-16.88-16.88l9.353-2.661 445.081-.849 8.081 3.51h-.003z" fill="#15bdb1"/><path d="M353.601 97.507h48.923v-2.359h-48.923v2.359zm15.441 135.738h44.262v-2.357h-44.262v2.357zm-12.094 9.77h64.13v-2.357h-64.13v2.357zm7.977-41.524h53.578v-2.359h-53.578v2.359zm-12.096 9.767h64.13v-2.357h-64.13v2.357zm4.891-82.001h44.262V126.9H357.72v2.357zm-12.096 9.77h68.787v-2.359h-68.787v2.359zm-4.116-31.754h50.156v-2.357h-50.156v2.357z" fill="#fff"/></symbol><symbol viewBox="0 0 438.533 438.533" id="dribbble"><path d="M409.133 109.203c-19.608-33.592-46.205-60.189-79.798-79.796C295.736 9.801 259.058 0 219.273 0c-39.781 0-76.47 9.801-110.063 29.407-33.595 19.604-60.192 46.201-79.8 79.796C9.801 142.8 0 179.489 0 219.267c0 39.78 9.804 76.463 29.407 110.062 19.607 33.592 46.204 60.189 79.799 79.798 33.597 19.605 70.283 29.407 110.063 29.407s76.47-9.802 110.065-29.407c33.593-19.602 60.189-46.206 79.795-79.798 19.603-33.596 29.403-70.284 29.403-110.062.001-39.782-9.8-76.472-29.399-110.064zM219.27 31.977c47.201 0 88.41 15.607 123.621 46.82l-3.569 4.993c-1.427 2.002-4.996 5.852-10.704 11.565-5.709 5.708-11.943 11.136-18.699 16.274-6.762 5.14-15.94 10.992-27.555 17.559-11.611 6.567-23.982 12.328-37.117 17.276-21.887-40.355-45.296-76.709-70.231-109.064 15.039-3.616 29.789-5.423 44.254-5.423zM72.524 103.06c18.271-23.026 40.537-40.73 66.806-53.1 23.601 31.405 46.82 67.381 69.662 107.921-57.862 15.227-115.532 22.841-173.014 22.838 6.094-28.739 18.275-54.628 36.546-77.659zM44.54 286.794c-8.376-21.412-12.563-43.923-12.563-67.527 0-2.666.098-4.665.286-5.996 68.905 0 132.955-8.848 192.149-26.553 6.092 11.8 11.136 22.364 15.133 31.693-.771.38-1.999.806-3.713 1.283-1.719.476-2.953.806-3.721.999l-10.561 3.711c-7.236 2.666-16.708 7.235-28.409 13.703-11.704 6.478-24.123 14.182-37.257 23.13-13.134 8.949-26.696 20.797-40.684 35.553-13.99 14.75-25.743 30.591-35.26 47.53-15.227-16.939-27.026-36.12-35.4-57.526zM219.27 406.56c-44.54 0-84.32-14.277-119.343-42.825l4.283 3.142c6.661-14.66 16.462-28.746 29.408-42.257 12.944-13.511 25.41-24.413 37.401-32.695 11.991-8.274 25.028-16.077 39.115-23.414 14.084-7.323 23.691-11.991 28.835-13.983 5.14-1.998 9.233-3.572 12.278-4.716l.568-.287h.575c18.647 48.916 31.977 96.313 39.968 142.184-23.602 9.902-47.961 14.848-73.088 14.851zm157.606-86.081c-14.086 21.796-31.696 39.834-52.817 54.104-7.81-43.776-19.985-88.415-36.549-133.902 37.877-5.907 76.8-3.142 116.771 8.274-4.189 25.886-13.326 49.732-27.405 71.524zm26.83-103.781a232.46 232.46 0 0 0-7.139-1.283c-2.854-.473-6.331-1.047-10.424-1.713-4.087-.666-8.662-1.283-13.702-1.855a549.162 549.162 0 0 0-16.136-1.569c-5.708-.478-11.8-.855-18.268-1.143a449.763 449.763 0 0 0-19.705-.428c-6.656 0-13.657.193-20.981.571a246.549 246.549 0 0 0-21.265 1.999c-.575-.953-1.287-2.524-2.143-4.714-.855-2.187-1.479-3.855-1.848-4.997a1895.128 1895.128 0 0 0-12.573-27.121c13.134-5.333 25.652-11.469 37.555-18.418 11.892-6.949 21.402-13.131 28.544-18.555a237.319 237.319 0 0 0 20.27-17.277c6.379-6.09 10.513-10.323 12.423-12.703a286.978 286.978 0 0 0 5.424-6.995l.287-.288c27.788 33.88 41.974 72.897 42.538 117.059l-2.857-.57z"/></symbol><symbol viewBox="0 0 612.816 612.816" id="exclamation-mark"><path d="M306.408 0C137.368 0 .371 136.997.371 306.037s136.997 306.779 306.037 306.779 306.037-137.813 306.037-306.037C612.445 137.739 475.448 0 306.408 0zm0 583.147c-152.203 0-276.368-124.165-276.368-276.368S154.205 29.595 306.408 29.595 582.776 153.76 582.776 306.779 458.611 583.147 306.408 583.147zm15.205-151.387c0 8.827-7.195 16.021-16.021 16.021-8.827 0-16.021-7.195-16.021-16.021 0-8.827 7.195-16.021 16.021-16.021s16.021 7.195 16.021 16.021zm-31.226-78.549v-180.24c0-8.011 6.379-14.39 14.39-14.39 8.011 0 14.39 6.379 14.39 14.39v180.24c0 8.011-6.379 14.39-14.39 14.39-8.011.89-14.39-6.379-14.39-14.39z"/></symbol><symbol viewBox="0 0 430.113 430.114" id="facebook"><path d="M158.081 83.3v59.218h-43.385v72.412h43.385v215.183h89.122V214.936h59.805s5.601-34.721 8.316-72.685H247.54V92.74c0-7.4 9.717-17.354 19.321-17.354h48.557V.001h-66.021C155.878-.004 158.081 72.48 158.081 83.3z"/></symbol><symbol viewBox="0 0 512.003 512.003" id="history"><path d="M256.001 0c141.385 0 256 114.615 256 255.997 0 141.385-114.615 256-256 256s-256-114.615-256-256S114.616 0 256.001 0z" fill="#1a91a1"/><path d="M144.028 172.672h223.947v313.596c-33.826 16.478-71.815 25.734-111.973 25.734s-78.15-9.257-111.973-25.734V172.672z" fill="#15bdb1"/><g fill="#20d0c2"><path d="M100.132 128.622h311.739c26.925 0 48.754 21.829 48.754 48.754s-21.829 48.756-48.754 48.756-48.754-21.829-48.754-48.756H148.888c0 26.925-21.829 48.756-48.756 48.756s-48.754-21.829-48.754-48.756c0-26.926 21.826-48.754 48.754-48.754z"/><path d="M154.73 172.672h202.543v317.465C326.211 504.197 291.976 512 256.001 512s-70.21-7.803-101.272-21.863V172.672z"/></g><path d="M96.415 185.837c-9.278-3.481-8.989-17.792 2.71-21.336 3.274-.992 7.302-1.049 11.098.121 6.613 2.043 12.811 7.557 13.731 17.892.818 9.246-3.389 16.735-9.933 21.501-3.407 2.481-7.441 4.189-11.683 4.968-4.252.784-8.735.666-13.021-.498-8.714-2.369-16.672-8.889-20.436-20.716-4.273-13.425-.241-25.703 8.097-34.233 3.976-4.068 8.923-7.258 14.385-9.27a39.89 39.89 0 0 1 17.516-2.274c13.813 1.309 27.985 9.878 37.042 29.06l.089.186c1.191 2.523.818 3.145 1.293 3.444.59.37.372-.399 2.237-.449l1.296-.031h.029c.307-.005 5.333-.013 9.731-.021l6.521-.013h177.761l6.518.013c4.401.008 9.424.013 9.734.021h.029l1.298.031c1.862.05 1.642.818 2.235.449.475-.299.102-.921 1.293-3.444l.089-.186c9.06-19.182 23.232-27.751 37.042-29.06a39.891 39.891 0 0 1 17.519 2.274c5.461 2.014 10.408 5.201 14.382 9.27 8.339 8.53 12.373 20.808 8.097 34.233-3.761 11.827-11.72 18.348-20.433 20.716-4.286 1.165-8.769 1.283-13.021.498-4.239-.779-8.276-2.487-11.68-4.968-6.544-4.766-10.754-12.252-9.933-21.501.918-10.335 7.116-15.848 13.731-17.892 3.796-1.172 7.822-1.112 11.095-.121 11.701 3.544 11.987 17.857 2.712 21.336-3.94.784-7.263-1.747-6.725-5.298.37-2.437 2.122-5.301-.302-6.03-7.389-2.222-12.134 11.237-2.041 17.781 1.629 1.188 3.62 2.014 5.763 2.408 2.127.393 4.394.328 6.589-.27 4.346-1.18 8.383-4.64 10.416-11.04 2.458-7.725.131-14.799-4.682-19.722-2.437-2.492-5.527-4.47-8.979-5.742-3.491-1.285-7.305-1.839-11.145-1.477-9.141.868-18.731 6.982-25.26 20.808l-.089.186c-2.397 5.078-3.552 7.525-6.757 9.532-3.129 1.959-5.566 1.899-10.261 1.773l-1.296-.034c-.519-.005-5.254-.013-9.419-.018l-6.518-.013v28.347H167.121v-28.347l-6.521.013c-4.163.005-8.9.013-9.419.018l-1.296.034c-4.695.123-7.135.186-10.261-1.773-3.205-2.007-4.359-4.454-6.757-9.532l-.092-.186c-6.529-13.826-16.118-19.94-25.257-20.808-3.843-.362-7.657.191-11.145 1.477-3.454 1.272-6.539 3.25-8.979 5.742-4.813 4.923-7.142 11.998-4.685 19.722 2.038 6.403 6.072 9.863 10.419 11.04 2.193.598 4.459.664 6.589.27 2.143-.393 4.134-1.222 5.763-2.408 10.093-6.544 5.346-20.003-2.038-17.781-2.426.729-.674 3.594-.304 6.03.54 3.554-2.783 6.083-6.723 5.298z" fill="#15bdb1"/><path d="M176.981 185.801h6.148c1.159 0 2.109.708 2.109 1.571v19.819c0 .866-.947 1.574-2.109 1.574h-6.148c-1.159 0-2.109-.708-2.109-1.574v-19.819c0-.866.947-1.571 2.109-1.571zm151.893 0h6.151c1.159 0 2.109.708 2.109 1.571v19.819c0 .866-.947 1.574-2.109 1.574h-6.151c-1.159 0-2.109-.708-2.109-1.574v-19.819c0-.866.947-1.571 2.109-1.571zm-21.698 0h6.151c1.162 0 2.109.708 2.109 1.571v19.819c0 .866-.947 1.574-2.109 1.574h-6.151c-1.159 0-2.106-.708-2.106-1.574v-19.819c0-.866.947-1.571 2.106-1.571zm-21.7 0h6.151c1.162 0 2.109.708 2.109 1.571v19.819c0 .866-.947 1.574-2.109 1.574h-6.151c-1.159 0-2.106-.708-2.106-1.574v-19.819c0-.866.947-1.571 2.106-1.571zm-21.697 0h6.148c1.162 0 2.109.708 2.109 1.571v19.819c0 .866-.947 1.574-2.109 1.574h-6.148c-1.159 0-2.109-.708-2.109-1.574v-19.819c0-.866.947-1.571 2.109-1.571zm-21.701 0h6.151c1.162 0 2.109.708 2.109 1.571v19.819c0 .866-.947 1.574-2.109 1.574h-6.151c-1.159 0-2.106-.708-2.106-1.574v-19.819c0-.866.947-1.571 2.106-1.571zm-21.697 0h6.148c1.162 0 2.109.708 2.109 1.571v19.819c0 .866-.947 1.574-2.109 1.574h-6.148c-1.162 0-2.109-.708-2.109-1.574v-19.819c0-.866.947-1.571 2.109-1.571zm-21.7 0h6.148c1.159 0 2.109.708 2.109 1.571v19.819c0 .866-.947 1.574-2.109 1.574h-6.148c-1.159 0-2.109-.708-2.109-1.574v-19.819c0-.866.947-1.571 2.109-1.571z" fill="#20d0c2"/><path d="M169.028 224.818h13.33V501.23a252.765 252.765 0 0 1-13.33-4.396V224.818zm173.944 272.016a254.635 254.635 0 0 1-13.33 4.396V224.818h13.33v272.016zm-32.121 9.256a255.47 255.47 0 0 1-13.33 2.539V224.815h13.33V506.09zm-32.124 4.892c-4.412.391-8.858.661-13.33.826V224.815h13.33v286.167zm-32.121.827a256.92 256.92 0 0 1-13.33-.826V224.815h13.33v286.994zm-32.124-3.18a256.405 256.405 0 0 1-13.327-2.539V224.818h13.327v283.814-.003zm-63.839-346.787h210.719a63.463 63.463 0 0 0-3.837 6.361H154.486a64.504 64.504 0 0 0-3.84-6.361h-.003zm-28.105-46.464h266.93c-1.71 4.079-3.336 8.488-4.863 13.244H127.401c-1.529-4.756-3.155-9.165-4.866-13.244h.003z" fill="#15bdb1"/><path d="M122.538 115.378h266.93a64.617 64.617 0 0 1-4.863-6.618H127.401a64.896 64.896 0 0 1-4.866 6.618h.003z" fill="#20d0c2"/></symbol><symbol viewBox="0 0 290 290" id="instagram"><path d="M250.626 0H39.374C17.663 0 0 17.663 0 39.374v211.252C0 272.338 17.663 290 39.374 290h211.252C272.337 290 290 272.338 290 250.626V39.374C290 17.663 272.337 0 250.626 0zM145 215.846c-35.762 0-64.856-29.094-64.856-64.856 0-35.761 29.095-64.856 64.856-64.856s64.856 29.095 64.856 64.856c0 35.762-29.094 64.856-64.856 64.856zm120.447-112.731H206.85C192.058 85.407 169.823 74.122 145 74.122s-47.058 11.286-61.85 28.993H24.553V46.804c0-14.313 11.645-25.957 25.958-25.957H239.49c14.313 0 25.958 11.644 25.958 25.957v56.311z"/><path d="M145 109.296c-22.989 0-41.694 18.704-41.694 41.693 0 22.99 18.704 41.693 41.694 41.693s41.694-18.703 41.694-41.693c0-22.989-18.705-41.693-41.694-41.693zm88.488-71.805h-25.093c-5.735 0-10.401 4.667-10.401 10.402v25.093c0 5.735 4.665 10.401 10.401 10.401h25.093c5.735 0 10.401-4.665 10.401-10.401V47.893c0-5.736-4.666-10.402-10.401-10.402z"/></symbol><symbol viewBox="0 0 290 290" id="menu"><path d="M0 220h70v70H0zm0-110h70v70H0zM0 0h70v70H0zm110 220h70v70h-70zm0-110h70v70h-70zm0-110h70v70h-70zm110 220h70v70h-70zm0-110h70v70h-70zm0-110h70v70h-70z"/></symbol><symbol viewBox="0 0 512 512" id="sports"><g fill="#d35933"><circle cx="256" cy="256" r="256"/><circle cx="256" cy="256" r="256"/></g><path d="M264.523 511.843c137.349-4.494 247.332-117.165 247.475-255.574L344.416 88.686l-55.339 80.693-80.693-80.693-28.448 53.751 75.702 75.702-57.097 83.256 11.431 11.431-62.414 82.049 116.965 116.968z" fill="#b54324"/><path d="M333.629 158.301c2.877-26.671 8.549-49.504 12.164-62.216 1.534-5.394-2.507-10.752-8.114-10.752h-27.203c-4.167 0-7.837 2.97-8.466 7.089-3.413 22.342-22.712 39.457-46.009 39.457s-42.596-17.115-46.009-39.457c-.629-4.118-4.299-7.089-8.466-7.089h-27.203c-5.608 0-9.65 5.358-8.114 10.752 3.617 12.712 9.288 35.543 12.164 62.216 2.317 21.485-14.539 40.236-36.149 40.236v185.032c0 8.094 6.561 14.653 14.653 14.653h198.249c8.094 0 14.653-6.561 14.653-14.653V198.537c-21.61 0-38.468-18.751-36.15-40.236z" fill="#fff"/><g fill="#d0d1d3"><path d="M333.629 158.301c2.877-26.671 8.549-49.504 12.164-62.216 1.534-5.394-2.507-10.752-8.114-10.752h-27.203c-4.167 0-7.837 2.97-8.466 7.089-3.413 22.342-22.712 39.457-46.009 39.457-.193 0-.383-.01-.574-.014v266.357h99.699c8.094 0 14.653-6.561 14.653-14.653V198.537c-21.61 0-38.468-18.751-36.15-40.236z"/><path d="M142.222 341.333h227.556v28.444H142.222z"/></g><path fill="#a6a8aa" d="M255.431 341.333h114.347v28.444H255.431z"/><path d="M237.899 289.616a5.171 5.171 0 0 1-5.172-5.172v-56.889c0-2.857 2.315-5.172 5.172-5.172s5.172 2.315 5.172 5.172v56.889a5.172 5.172 0 0 1-5.172 5.172z" fill="#ff7f4f"/><path d="M280.566 289.616c-10.693 0-19.394-8.701-19.394-19.394 0-2.857 2.315-5.172 5.172-5.172s5.172 2.315 5.172 5.172c0 4.991 4.06 9.051 9.051 9.051s9.051-4.06 9.051-9.051c0-4.991-4.06-9.051-9.051-9.051-2.857 0-5.172-2.315-5.172-5.172s2.315-5.172 5.172-5.172c4.991 0 9.051-4.06 9.051-9.051 0-4.991-4.06-9.051-9.051-9.051s-9.051 4.06-9.051 9.051c0 2.857-2.315 5.172-5.172 5.172s-5.172-2.315-5.172-5.172c0-10.693 8.701-19.394 19.394-19.394s19.394 8.701 19.394 19.394c0 5.613-2.398 10.676-6.222 14.222 3.825 3.546 6.222 8.609 6.222 14.222 0 10.696-8.701 19.396-19.394 19.396z" fill="#d35933"/></symbol><symbol viewBox="0 0 612 612" id="twitter"><path d="M612 116.258a250.714 250.714 0 0 1-72.088 19.772c25.929-15.527 45.777-40.155 55.184-69.411-24.322 14.379-51.169 24.82-79.775 30.48-22.907-24.437-55.49-39.658-91.63-39.658-69.334 0-125.551 56.217-125.551 125.513 0 9.828 1.109 19.427 3.251 28.606-104.326-5.24-196.835-55.223-258.75-131.174-10.823 18.51-16.98 40.078-16.98 63.101 0 43.559 22.181 81.993 55.835 104.479a125.556 125.556 0 0 1-56.867-15.756v1.568c0 60.806 43.291 111.554 100.693 123.104-10.517 2.83-21.607 4.398-33.08 4.398-8.107 0-15.947-.803-23.634-2.333 15.985 49.907 62.336 86.199 117.253 87.194-42.947 33.654-97.099 53.655-155.916 53.655-10.134 0-20.116-.612-29.944-1.721 55.567 35.681 121.536 56.485 192.438 56.485 230.948 0 357.188-191.291 357.188-357.188l-.421-16.253c24.666-17.593 46.005-39.697 62.794-64.861z"></symbol></svg>