<svg xmlns="http://www.w3.org/2000/svg" viewBox="0 0 512 512"><path d="M255.999 0C397.385 0 512 114.615 512 255.999 512 397.385 397.385 512 255.999 512 114.615 512 0 397.385 0 255.999 0 114.615 114.615 0 255.999 0z" fill="#ffca4f"/><path d="M171.165 10.738c92.3 0 167.128 74.824 167.128 167.128s-74.826 167.128-167.128 167.128c-92.304 0-167.128-74.824-167.128-167.128S78.861 10.738 171.165 10.738z" fill="#ecf0f1"/><path d="M19.784 106.955c16.609-3.248 34.581-4.992 53.415-5.19 7.384-22.653 6.432-42.439-1.689-58.078-22.057 16.411-39.93 38.131-51.726 63.27v-.002zM297.126 68.02c25.64 29.373 41.171 67.795 41.171 109.846 0 8.356-.615 16.569-1.799 24.595-25.561-27.673-64.124-53.26-112.525-72.191a421.317 421.317 0 0 0-51.049-16.285c23.491-34.224 71.565-50.925 124.202-45.967v.002zm36.978 147.209c-23.455-30.061-63.222-58.34-114.893-78.55-16.594-6.489-33.534-11.781-50.485-15.91a84.25 84.25 0 0 0-3.475 6.978c-25.784 58.583 20.708 134.179 101.392 168.521a219.695 219.695 0 0 0 16.02 6.088c25.276-22.653 43.619-52.888 51.437-87.129l.004.002zM160.43 118.835a392.815 392.815 0 0 0-45.162-7.296 314.279 314.279 0 0 0-4.013 9.712c-30.517 77.54-28.39 161.827 1.091 213.097 18.296 6.881 38.118 10.647 58.823 10.647 39.76 0 76.272-13.893 104.964-37.079a231.124 231.124 0 0 1-12.46-4.89c-85.831-36.53-133.173-116.661-105.747-178.979a92.904 92.904 0 0 1 2.503-5.214v.002zm30.662-106.922c-27.803 19.619-53.554 51.417-72.496 92.218a411.878 411.878 0 0 1 45.788 7.81c23.14-36.552 71.124-55.388 125.017-52.202-25.833-25.855-60.094-43.286-98.309-47.826zm-19.923-1.18c1.429 0 2.853.015 4.273.053-25.737 21.764-49.14 53.322-66.571 92.372a373.081 373.081 0 0 0-27.02-1.385c7.481-24.474 6.273-46.245-2.591-63.509 26.368-17.398 57.952-27.532 91.907-27.532h.002zM98.824 328.567c-48.139-23.155-83.471-68.701-92.509-123.13 25.014-21.01 46.223-45.047 60.808-70.425 4.987-8.674 8.987-17.141 12.047-25.34a355.23 355.23 0 0 1 26.456 1.016 321.93 321.93 0 0 0-2.447 6.024c-29.982 76.177-29.614 157.395-4.355 211.855zM4.959 195.454c22.831-19.938 42.137-42.293 55.37-65.319 4.011-6.978 7.322-13.767 9.957-20.344-19.46.525-37.888 2.785-54.634 6.742-7.497 18.988-11.615 39.676-11.615 61.332 0 5.94.311 11.808.922 17.589z" fill="#ff5b61"/><path d="M297.124 68.02c25.64 29.373 41.171 67.795 41.171 109.846 0 8.356-.615 16.569-1.799 24.595-7.867-8.517-16.966-16.836-27.201-24.822a162.198 162.198 0 0 0 1.356-20.931c0-33.135-10.032-63.921-27.223-89.495 4.522.104 9.093.368 13.699.805l-.003.002zm36.977 147.209c-7.296-9.351-16.168-18.525-26.485-27.338-7.867 39.985-30.564 74.641-62.131 98.012a221.907 221.907 0 0 0 21.156 10.367 219.695 219.695 0 0 0 16.02 6.088c25.276-22.653 43.619-52.888 51.437-87.129h.003zm-95.333 75.384a230.562 230.562 0 0 0 24.902 12.416 231.78 231.78 0 0 0 12.46 4.89c-28.692 23.188-65.204 37.079-104.964 37.079-20.706 0-40.527-3.766-58.823-10.647-4.326-7.521-8.057-15.756-11.187-24.571 15.405 4.912 31.82 7.571 48.855 7.571 32.815 0 63.33-9.847 88.756-26.738h.001zm9.163-261.242a167.644 167.644 0 0 1 41.467 30.367 197.307 197.307 0 0 0-11.582-.342 161.562 161.562 0 0 0-29.885-30.025zM98.819 328.569c-32.674-15.718-59.441-41.751-76.101-73.871 17.387 22.553 40.633 40.36 67.462 51.133 2.446 7.99 5.325 15.597 8.639 22.738z" fill="#ec4b53"/><path d="M41.625 314.604h428.751c9.287 0 16.88 7.598 16.88 16.88v.002c0 9.287-7.596 16.88-16.88 16.88H41.625c-9.287 0-16.88-7.594-16.88-16.88v-.002c0-9.284 7.596-16.88 16.88-16.88z" fill="#20d0c2"/><path d="M54.621 333.762l23.27 49.212 11.333-19.081-18.807-31.668 4.05-2.394 17.493 29.455 17.493-29.455 4.055 2.394-18.81 31.668 25.563 43.039 25.563-43.039-18.81-31.668 4.055-2.394 17.493 29.455 17.493-29.455 4.05 2.394-18.807 31.668 25.563 43.041 25.563-43.041-18.81-31.668 4.055-2.394 17.493 29.455 17.493-29.455 4.05 2.394-18.805 31.668 25.563 43.041 25.563-43.041-18.81-31.668 4.055-2.394 17.493 29.455 17.493-29.455 4.05 2.394-18.807 31.668 25.563 43.041 25.563-43.041-18.81-31.668 4.053-2.394 17.496 29.455 17.493-29.455 4.05 2.394-18.81 31.668 25.565 43.041 25.561-43.041-18.807-31.668 4.05-2.394 17.496 29.455 17.493-29.455 4.05 2.394-18.81 31.668 25.563 43.039 25.563-43.039-18.807-31.668 4.05-2.394 17.493 29.455 17.493-29.455 4.055 2.394-18.81 31.668 9.333 15.712 21.678-45.843 4.255 2.009-23.896 50.542-21.72 58.587-1.96 5.977a255.928 255.928 0 0 1-6.787 5.594l4.271-13.026-16.212-27.294-25.563 43.039 9.794 16.488a262.225 262.225 0 0 1-4.05 2.394l-8.48-14.272-15.751 26.522a265.775 265.775 0 0 1-7.311 3.091l20.324-34.224-25.561-43.039-25.563 43.039 22.273 37.502a235.284 235.284 0 0 1-4.529 1.596l-20.48-34.487-25.563 43.039 1.38 2.324c-2.959.441-5.935.822-8.927 1.164l2.073-3.488L261.76 463.8l-25.563 43.039 2.719 4.582a255.566 255.566 0 0 1-10.389-.891l2.194-3.691-25.564-43.039-22.318 37.575a278.503 278.503 0 0 1-4.63-1.424l24.212-40.761-25.563-43.039-25.563 43.039 23.565 39.674a255.593 255.593 0 0 1-6.903-2.405l-19.398-32.66-11.306 19.034a279.55 279.55 0 0 1-4.156-2.22l12.724-21.425-25.563-43.039-18.525 31.19 5.607 17.094a266.967 266.967 0 0 1-6.544-4.846L95.977 444.9l-21.718-58.587-23.898-50.542 4.255-2.009h.005zm386.603 51l-9.659-16.261-25.563 43.039 15.575 26.22 19.647-52.998zm-361.133 3.722l19.647 53 17.784-29.946-25.562-43.039-11.871 19.983.002.002zm320.436 23.056l-25.561-43.039-25.565 43.039 25.563 43.041 25.563-43.041zm-56.601.002l-25.561-43.039-25.563 43.039 25.563 43.041 25.561-43.041zm-28.299 47.647l-25.563-43.039-25.563 43.039 25.563 43.041 25.563-43.041zm-28.302-47.649l-25.563-43.039-25.563 43.039 25.563 43.041 25.563-43.041zm-28.299 47.649l-25.563-43.039-25.563 43.039 25.563 43.041 25.563-43.041zm-28.301-47.649l-25.563-43.039-25.563 43.039 25.563 43.041 25.563-43.041zm-56.601.002l-25.563-43.039-25.563 43.039 25.563 43.041 25.563-43.041z" fill="#fff"/><path d="M487.257 331.484c0 9.287-7.594 16.88-16.88 16.88H41.625c-9.287 0-16.88-7.594-16.88-16.88l9.353-2.661 445.081-.849 8.081 3.51h-.003z" fill="#15bdb1"/><path d="M353.601 97.507h48.923v-2.359h-48.923v2.359zm15.441 135.738h44.262v-2.357h-44.262v2.357zm-12.094 9.77h64.13v-2.357h-64.13v2.357zm7.977-41.524h53.578v-2.359h-53.578v2.359zm-12.096 9.767h64.13v-2.357h-64.13v2.357zm4.891-82.001h44.262V126.9H357.72v2.357zm-12.096 9.77h68.787v-2.359h-68.787v2.359zm-4.116-31.754h50.156v-2.357h-50.156v2.357z" fill="#fff"/></svg>