<svg xmlns="http://www.w3.org/2000/svg" viewBox="0 0 512.003 512.003"><path d="M256.001 0c141.385 0 256 114.615 256 255.997 0 141.385-114.615 256-256 256s-256-114.615-256-256S114.616 0 256.001 0z" fill="#1a91a1"/><path d="M144.028 172.672h223.947v313.596c-33.826 16.478-71.815 25.734-111.973 25.734s-78.15-9.257-111.973-25.734V172.672z" fill="#15bdb1"/><g fill="#20d0c2"><path d="M100.132 128.622h311.739c26.925 0 48.754 21.829 48.754 48.754s-21.829 48.756-48.754 48.756-48.754-21.829-48.754-48.756H148.888c0 26.925-21.829 48.756-48.756 48.756s-48.754-21.829-48.754-48.756c0-26.926 21.826-48.754 48.754-48.754z"/><path d="M154.73 172.672h202.543v317.465C326.211 504.197 291.976 512 256.001 512s-70.21-7.803-101.272-21.863V172.672z"/></g><path d="M96.415 185.837c-9.278-3.481-8.989-17.792 2.71-21.336 3.274-.992 7.302-1.049 11.098.121 6.613 2.043 12.811 7.557 13.731 17.892.818 9.246-3.389 16.735-9.933 21.501-3.407 2.481-7.441 4.189-11.683 4.968-4.252.784-8.735.666-13.021-.498-8.714-2.369-16.672-8.889-20.436-20.716-4.273-13.425-.241-25.703 8.097-34.233 3.976-4.068 8.923-7.258 14.385-9.27a39.89 39.89 0 0 1 17.516-2.274c13.813 1.309 27.985 9.878 37.042 29.06l.089.186c1.191 2.523.818 3.145 1.293 3.444.59.37.372-.399 2.237-.449l1.296-.031h.029c.307-.005 5.333-.013 9.731-.021l6.521-.013h177.761l6.518.013c4.401.008 9.424.013 9.734.021h.029l1.298.031c1.862.05 1.642.818 2.235.449.475-.299.102-.921 1.293-3.444l.089-.186c9.06-19.182 23.232-27.751 37.042-29.06a39.891 39.891 0 0 1 17.519 2.274c5.461 2.014 10.408 5.201 14.382 9.27 8.339 8.53 12.373 20.808 8.097 34.233-3.761 11.827-11.72 18.348-20.433 20.716-4.286 1.165-8.769 1.283-13.021.498-4.239-.779-8.276-2.487-11.68-4.968-6.544-4.766-10.754-12.252-9.933-21.501.918-10.335 7.116-15.848 13.731-17.892 3.796-1.172 7.822-1.112 11.095-.121 11.701 3.544 11.987 17.857 2.712 21.336-3.94.784-7.263-1.747-6.725-5.298.37-2.437 2.122-5.301-.302-6.03-7.389-2.222-12.134 11.237-2.041 17.781 1.629 1.188 3.62 2.014 5.763 2.408 2.127.393 4.394.328 6.589-.27 4.346-1.18 8.383-4.64 10.416-11.04 2.458-7.725.131-14.799-4.682-19.722-2.437-2.492-5.527-4.47-8.979-5.742-3.491-1.285-7.305-1.839-11.145-1.477-9.141.868-18.731 6.982-25.26 20.808l-.089.186c-2.397 5.078-3.552 7.525-6.757 9.532-3.129 1.959-5.566 1.899-10.261 1.773l-1.296-.034c-.519-.005-5.254-.013-9.419-.018l-6.518-.013v28.347H167.121v-28.347l-6.521.013c-4.163.005-8.9.013-9.419.018l-1.296.034c-4.695.123-7.135.186-10.261-1.773-3.205-2.007-4.359-4.454-6.757-9.532l-.092-.186c-6.529-13.826-16.118-19.94-25.257-20.808-3.843-.362-7.657.191-11.145 1.477-3.454 1.272-6.539 3.25-8.979 5.742-4.813 4.923-7.142 11.998-4.685 19.722 2.038 6.403 6.072 9.863 10.419 11.04 2.193.598 4.459.664 6.589.27 2.143-.393 4.134-1.222 5.763-2.408 10.093-6.544 5.346-20.003-2.038-17.781-2.426.729-.674 3.594-.304 6.03.54 3.554-2.783 6.083-6.723 5.298z" fill="#15bdb1"/><path d="M176.981 185.801h6.148c1.159 0 2.109.708 2.109 1.571v19.819c0 .866-.947 1.574-2.109 1.574h-6.148c-1.159 0-2.109-.708-2.109-1.574v-19.819c0-.866.947-1.571 2.109-1.571zm151.893 0h6.151c1.159 0 2.109.708 2.109 1.571v19.819c0 .866-.947 1.574-2.109 1.574h-6.151c-1.159 0-2.109-.708-2.109-1.574v-19.819c0-.866.947-1.571 2.109-1.571zm-21.698 0h6.151c1.162 0 2.109.708 2.109 1.571v19.819c0 .866-.947 1.574-2.109 1.574h-6.151c-1.159 0-2.106-.708-2.106-1.574v-19.819c0-.866.947-1.571 2.106-1.571zm-21.7 0h6.151c1.162 0 2.109.708 2.109 1.571v19.819c0 .866-.947 1.574-2.109 1.574h-6.151c-1.159 0-2.106-.708-2.106-1.574v-19.819c0-.866.947-1.571 2.106-1.571zm-21.697 0h6.148c1.162 0 2.109.708 2.109 1.571v19.819c0 .866-.947 1.574-2.109 1.574h-6.148c-1.159 0-2.109-.708-2.109-1.574v-19.819c0-.866.947-1.571 2.109-1.571zm-21.701 0h6.151c1.162 0 2.109.708 2.109 1.571v19.819c0 .866-.947 1.574-2.109 1.574h-6.151c-1.159 0-2.106-.708-2.106-1.574v-19.819c0-.866.947-1.571 2.106-1.571zm-21.697 0h6.148c1.162 0 2.109.708 2.109 1.571v19.819c0 .866-.947 1.574-2.109 1.574h-6.148c-1.162 0-2.109-.708-2.109-1.574v-19.819c0-.866.947-1.571 2.109-1.571zm-21.7 0h6.148c1.159 0 2.109.708 2.109 1.571v19.819c0 .866-.947 1.574-2.109 1.574h-6.148c-1.159 0-2.109-.708-2.109-1.574v-19.819c0-.866.947-1.571 2.109-1.571z" fill="#20d0c2"/><path d="M169.028 224.818h13.33V501.23a252.765 252.765 0 0 1-13.33-4.396V224.818zm173.944 272.016a254.635 254.635 0 0 1-13.33 4.396V224.818h13.33v272.016zm-32.121 9.256a255.47 255.47 0 0 1-13.33 2.539V224.815h13.33V506.09zm-32.124 4.892c-4.412.391-8.858.661-13.33.826V224.815h13.33v286.167zm-32.121.827a256.92 256.92 0 0 1-13.33-.826V224.815h13.33v286.994zm-32.124-3.18a256.405 256.405 0 0 1-13.327-2.539V224.818h13.327v283.814-.003zm-63.839-346.787h210.719a63.463 63.463 0 0 0-3.837 6.361H154.486a64.504 64.504 0 0 0-3.84-6.361h-.003zm-28.105-46.464h266.93c-1.71 4.079-3.336 8.488-4.863 13.244H127.401c-1.529-4.756-3.155-9.165-4.866-13.244h.003z" fill="#15bdb1"/><path d="M122.538 115.378h266.93a64.617 64.617 0 0 1-4.863-6.618H127.401a64.896 64.896 0 0 1-4.866 6.618h.003z" fill="#20d0c2"/></svg>