<svg xmlns="http://www.w3.org/2000/svg" viewBox="0 0 512 512"><g fill="#d35933"><circle cx="256" cy="256" r="256"/><circle cx="256" cy="256" r="256"/></g><path d="M264.523 511.843c137.349-4.494 247.332-117.165 247.475-255.574L344.416 88.686l-55.339 80.693-80.693-80.693-28.448 53.751 75.702 75.702-57.097 83.256 11.431 11.431-62.414 82.049 116.965 116.968z" fill="#b54324"/><path d="M333.629 158.301c2.877-26.671 8.549-49.504 12.164-62.216 1.534-5.394-2.507-10.752-8.114-10.752h-27.203c-4.167 0-7.837 2.97-8.466 7.089-3.413 22.342-22.712 39.457-46.009 39.457s-42.596-17.115-46.009-39.457c-.629-4.118-4.299-7.089-8.466-7.089h-27.203c-5.608 0-9.65 5.358-8.114 10.752 3.617 12.712 9.288 35.543 12.164 62.216 2.317 21.485-14.539 40.236-36.149 40.236v185.032c0 8.094 6.561 14.653 14.653 14.653h198.249c8.094 0 14.653-6.561 14.653-14.653V198.537c-21.61 0-38.468-18.751-36.15-40.236z" fill="#fff"/><g fill="#d0d1d3"><path d="M333.629 158.301c2.877-26.671 8.549-49.504 12.164-62.216 1.534-5.394-2.507-10.752-8.114-10.752h-27.203c-4.167 0-7.837 2.97-8.466 7.089-3.413 22.342-22.712 39.457-46.009 39.457-.193 0-.383-.01-.574-.014v266.357h99.699c8.094 0 14.653-6.561 14.653-14.653V198.537c-21.61 0-38.468-18.751-36.15-40.236z"/><path d="M142.222 341.333h227.556v28.444H142.222z"/></g><path fill="#a6a8aa" d="M255.431 341.333h114.347v28.444H255.431z"/><path d="M237.899 289.616a5.171 5.171 0 0 1-5.172-5.172v-56.889c0-2.857 2.315-5.172 5.172-5.172s5.172 2.315 5.172 5.172v56.889a5.172 5.172 0 0 1-5.172 5.172z" fill="#ff7f4f"/><path d="M280.566 289.616c-10.693 0-19.394-8.701-19.394-19.394 0-2.857 2.315-5.172 5.172-5.172s5.172 2.315 5.172 5.172c0 4.991 4.06 9.051 9.051 9.051s9.051-4.06 9.051-9.051c0-4.991-4.06-9.051-9.051-9.051-2.857 0-5.172-2.315-5.172-5.172s2.315-5.172 5.172-5.172c4.991 0 9.051-4.06 9.051-9.051 0-4.991-4.06-9.051-9.051-9.051s-9.051 4.06-9.051 9.051c0 2.857-2.315 5.172-5.172 5.172s-5.172-2.315-5.172-5.172c0-10.693 8.701-19.394 19.394-19.394s19.394 8.701 19.394 19.394c0 5.613-2.398 10.676-6.222 14.222 3.825 3.546 6.222 8.609 6.222 14.222 0 10.696-8.701 19.396-19.394 19.396z" fill="#d35933"/></svg>